<?xml version="1.0" encoding="utf-8"?>
<!-- Generator: Adobe Illustrator 22.0.1, SVG Export Plug-In . SVG Version: 6.00 Build 0)  -->
<svg version="1.1" id="Layer_1" xmlns="http://www.w3.org/2000/svg" xmlns:xlink="http://www.w3.org/1999/xlink" x="0px" y="0px"
	 viewBox="0 0 100 100" style="enable-background:new 0 0 100 100;" xml:space="preserve">
<g>
	<path d="M83,61.5v-40c0-2.5-2-4.5-4.5-4.5h-58C18,17,16,19,16,21.5v40c0,0.3,0,0.6,0.1,0.9L6,80.2v0.5c0,2.4,1.9,4.3,4.2,4.3h77.6
		c2.3,0,4.2-1.9,4.2-4.3v-0.5l-9.5-16.7C82.8,62.9,83,62.2,83,61.5z M20,21.5c0-0.3,0.2-0.5,0.5-0.5h58c0.3,0,0.5,0.2,0.5,0.5v40
		c0,0.3-0.2,0.5-0.5,0.5h-58c-0.3,0-0.5-0.2-0.5-0.5V21.5z M87.8,81C87.8,81,87.8,81,87.8,81l-77.6,0c0,0,0,0-0.1,0l8.7-15.3
		c0.5,0.2,1.1,0.3,1.6,0.3h58c0.3,0,0.5,0,0.8-0.1L87.8,81z"/>
	<path d="M74,71H24c-1.1,0-2,0.9-2,2s0.9,2,2,2h50c1.1,0,2-0.9,2-2S75.1,71,74,71z"/>
	<path d="M48.4,27.6h2c1.1,0,2-0.9,2-2s-0.9-2-2-2h-2c-1.1,0-2,0.9-2,2S47.3,27.6,48.4,27.6z"/>
</g>
</svg>
